<svg width="9" height="9" viewBox="0 0 9 9" fill="none" xmlns="http://www.w3.org/2000/svg">
    <path d="M1.62464 1.06347L1.62483 1.58322C1.62485 1.64588 1.64976 1.70598 1.69407 1.75029C1.73838 1.7946 1.79848 1.81951 1.86114 1.81953L6.73384 1.81944L0.49493 8.05841C0.450636 8.10276 0.425763 8.16287 0.425781 8.22555C0.425799 8.28823 0.450705 8.34834 0.495025 8.39266L0.862607 8.76024C0.954835 8.85247 1.10453 8.85247 1.19685 8.76015L7.43576 2.52118L7.43557 7.3942C7.43559 7.45687 7.4605 7.51696 7.50481 7.56128C7.54912 7.60559 7.60922 7.6305 7.67188 7.63052H8.19163C8.25429 7.6305 8.31439 7.60559 8.3587 7.56128C8.40301 7.51696 8.42792 7.45687 8.42794 7.3942L8.42803 1.06347C8.42801 1.0008 8.4031 0.940707 8.35879 0.896394C8.31448 0.852082 8.25439 0.827176 8.19172 0.82715L1.86095 0.827148C1.79829 0.827174 1.73819 0.85208 1.69388 0.896393C1.64957 0.940706 1.62466 1.0008 1.62464 1.06347Z" fill="#2F190E"/>
</svg>