
<svg width="49" height="48" viewBox="0 0 49 48" fill="none" xmlns="http://www.w3.org/2000/svg">
<path d="M11.8464 47.1205C8.31019 47.1205 5.42225 45.8239 3.18262 43.2306C1.06087 40.6374 0 36.6297 0 31.2074C0 25.3137 1.29662 19.8914 3.88987 14.9407C6.601 9.87203 10.1962 4.98022 14.6754 0.265221C15.1469 -0.0884069 15.5595 -0.0884069 15.9131 0.265221C16.2667 0.618841 16.3257 1.0314 16.0899 1.5029C13.1431 5.39278 11.1981 9.16478 10.2551 12.8189C9.31212 16.3552 8.84062 20.0682 8.84062 23.9581C8.84062 27.3765 9.25319 30.0287 10.0783 31.9147C11.0213 33.6828 12.1411 35.0973 13.4377 36.1581L6.71887 37.3958C6.601 35.392 7.13144 33.8596 8.31019 32.7987C9.60681 31.7378 11.2571 31.2074 13.2609 31.2074C15.7363 31.2074 17.6223 31.9147 18.9189 33.3292C20.3334 34.7437 21.0407 36.6886 21.0407 39.164C21.0407 41.7572 20.2156 43.7611 18.5653 45.1756C17.0329 46.4722 14.7933 47.1205 11.8464 47.1205ZM39.2524 47.1205C35.7161 47.1205 32.8282 45.8239 30.5886 43.2306C28.4668 40.6374 27.4059 36.6297 27.4059 31.2074C27.4059 25.3137 28.7026 19.8914 31.2958 14.9407C34.0069 9.87203 37.6021 4.98022 42.0814 0.265221C42.5529 -0.0884069 42.9654 -0.0884069 43.3191 0.265221C43.6727 0.618841 43.7316 1.0314 43.4959 1.5029C40.549 5.39278 38.6041 9.16478 37.6611 12.8189C36.7181 16.3552 36.2466 20.0682 36.2466 23.9581C36.2466 27.3765 36.6591 30.0287 37.4842 31.9147C38.4272 33.6828 39.4881 35.0973 40.6669 36.1581L34.1248 37.3958C34.0069 35.392 34.5374 33.8596 35.7161 32.7987C37.0127 31.7378 38.663 31.2074 40.6669 31.2074C43.1422 31.2074 45.0282 31.9147 46.3249 33.3292C47.7394 34.7437 48.4466 36.6886 48.4466 39.164C48.4466 41.7572 47.6215 43.7611 45.9712 45.1756C44.4389 46.4722 42.1992 47.1205 39.2524 47.1205Z" fill="#2F190E"/>
</svg>
